<?xml version="1.0" encoding="UTF-8" standalone="no"?>
<svg
   viewBox="0,0,256,256"
   width="50px"
   height="50px"
   fill-rule="nonzero"
   version="1.1"
   id="svg138"
   sodipodi:docname="icons8-twitter.svg"
   inkscape:export-filename="icons8-twitter.png"
   inkscape:export-xdpi="96"
   inkscape:export-ydpi="96"
   inkscape:version="1.2.2 (732a01da63, 2022-12-09)"
   xmlns:inkscape="http://www.inkscape.org/namespaces/inkscape"
   xmlns:sodipodi="http://sodipodi.sourceforge.net/DTD/sodipodi-0.dtd"
   xmlns="http://www.w3.org/2000/svg"
   xmlns:svg="http://www.w3.org/2000/svg">
  <defs
     id="defs142" />
  <sodipodi:namedview
     id="namedview140"
     pagecolor="#ffffff"
     bordercolor="#000000"
     borderopacity="0.25"
     inkscape:showpageshadow="2"
     inkscape:pageopacity="0.0"
     inkscape:pagecheckerboard="0"
     inkscape:deskcolor="#d1d1d1"
     showgrid="false"
     inkscape:zoom="16.74"
     inkscape:cx="21.087216"
     inkscape:cy="25.029869"
     inkscape:window-width="1920"
     inkscape:window-height="1017"
     inkscape:window-x="-8"
     inkscape:window-y="-8"
     inkscape:window-maximized="1"
     inkscape:current-layer="svg138" />
  <g
     fill="#ffffff"
     fill-rule="nonzero"
     stroke="none"
     stroke-width="1"
     stroke-linecap="butt"
     stroke-linejoin="miter"
     stroke-miterlimit="10"
     stroke-dasharray=""
     stroke-dashoffset="0"
     font-family="none"
     font-weight="none"
     font-size="none"
     text-anchor="none"
     style="mix-blend-mode: normal"
     id="g136">
    <g
       transform="scale(5.12,5.12)"
       id="g134">
      <path
         d="M50.0625,10.4375c-1.84766,0.82031 -3.82812,1.37109 -5.91016,1.62109c2.125,-1.27344 3.75781,-3.28906 4.52344,-5.6875c-1.98437,1.17578 -4.19141,2.03125 -6.53125,2.49219c-1.875,-2 -4.54687,-3.24609 -7.50391,-3.24609c-5.67969,0 -10.28516,4.60156 -10.28516,10.28125c0,0.80469 0.09375,1.58984 0.26953,2.34375c-8.54687,-0.42969 -16.12109,-4.52344 -21.19531,-10.74609c-0.88672,1.52344 -1.39062,3.28906 -1.39062,5.17187c0,3.56641 1.8125,6.71484 4.57422,8.5625c-1.6875,-0.05469 -3.27344,-0.51953 -4.66016,-1.28906c0,0.04297 0,0.08594 0,0.12891c0,4.98438 3.54688,9.13672 8.24609,10.08594c-0.85937,0.23438 -1.76953,0.35938 -2.70703,0.35938c-0.66406,0 -1.30859,-0.0625 -1.9375,-0.1875c1.3125,4.08203 5.10938,7.0625 9.60547,7.14453c-3.51562,2.75781 -7.94922,4.39844 -12.76953,4.39844c-0.83203,0 -1.64844,-0.04687 -2.44922,-0.14453c4.54687,2.92188 9.95312,4.62109 15.76172,4.62109c18.91406,0 29.25781,-15.66797 29.25781,-29.25391c0,-0.44531 -0.01172,-0.89453 -0.02734,-1.33203c2.00781,-1.44922 3.75,-3.26172 5.12891,-5.32422z"
         id="path132"
         style="fill:#000000;fill-opacity:1" />
    </g>
  </g>
</svg>
