<?xml version="1.0" standalone="no"?>
<!DOCTYPE svg PUBLIC "-//W3C//DTD SVG 20010904//EN"
 "http://www.w3.org/TR/2001/REC-SVG-20010904/DTD/svg10.dtd">
<svg version="1.0" xmlns="http://www.w3.org/2000/svg"
 width="64.000000pt" height="64.000000pt" viewBox="0 0 64.000000 64.000000"
 preserveAspectRatio="xMidYMid meet">

<g transform="translate(0.000000,64.000000) scale(0.100000,-0.100000)"
fill="#000000" stroke="none">
<path d="M400 569 c-14 -5 -49 -33 -77 -62 l-53 -51 33 -11 c30 -10 35 -9 74
27 48 43 83 48 113 18 37 -37 26 -67 -48 -142 -78 -77 -107 -86 -147 -43 l-23
26 -16 -23 c-15 -20 -14 -24 6 -45 32 -34 87 -48 130 -34 52 17 174 147 183
194 8 43 -16 101 -55 129 -32 23 -87 31 -120 17z"/>
<path d="M235 406 c-48 -22 -162 -147 -170 -187 -16 -88 70 -173 157 -154 19
5 56 30 90 63 l59 56 -33 11 c-31 10 -36 9 -75 -27 -48 -43 -83 -48 -113 -18
-37 37 -26 67 48 142 78 77 107 86 147 43 l23 -26 16 22 c14 21 14 25 -2 42
-19 22 -73 47 -99 47 -10 -1 -31 -7 -48 -14z"/>
</g>
</svg>
