<?xml version="1.0" encoding="UTF-8" standalone="no"?>
<svg
   viewBox="0,0,256,256"
   width="50px"
   height="50px"
   fill-rule="nonzero"
   version="1.1"
   id="svg138"
   sodipodi:docname="icons8-steam-circled.svg"
   inkscape:export-filename="icons8-twitter.png"
   inkscape:export-xdpi="96"
   inkscape:export-ydpi="96"
   inkscape:version="1.2.2 (732a01da63, 2022-12-09)"
   xmlns:inkscape="http://www.inkscape.org/namespaces/inkscape"
   xmlns:sodipodi="http://sodipodi.sourceforge.net/DTD/sodipodi-0.dtd"
   xmlns="http://www.w3.org/2000/svg"
   xmlns:svg="http://www.w3.org/2000/svg">
  <defs
     id="defs142" />
  <sodipodi:namedview
     id="namedview140"
     pagecolor="#ffffff"
     bordercolor="#000000"
     borderopacity="0.25"
     inkscape:showpageshadow="2"
     inkscape:pageopacity="0.0"
     inkscape:pagecheckerboard="0"
     inkscape:deskcolor="#d1d1d1"
     showgrid="false"
     inkscape:zoom="11.836968"
     inkscape:cx="13.179051"
     inkscape:cy="17.825511"
     inkscape:window-width="1920"
     inkscape:window-height="1017"
     inkscape:window-x="-8"
     inkscape:window-y="-8"
     inkscape:window-maximized="1"
     inkscape:current-layer="svg138" />
  <path
     d="m 201.92767,63.945518 a 50.542094,50.542094 0 0 1 -4.37103,-2.543987 61.458113,61.458113 0 0 1 -11.22593,-9.537646 C 177.95868,42.284611 174.83189,32.566581 173.68016,25.762572 h 0.0462 c -0.96209,-5.647653 -0.56429,-9.301743 -0.50415,-9.301743 H 135.09018 V 163.91033 c 0,1.97969 0,3.93625 -0.0833,5.86968 0,0.24052 -0.0231,0.46254 -0.037,0.72156 0,0.10639 0,0.2174 -0.0231,0.32841 0,0.0278 0,0.0555 0,0.0833 a 32.378025,32.378025 0 0 1 -16.29078,25.6989 31.822971,31.822971 0 0 1 -15.77735,4.16289 c -17.766278,0 -32.165248,-14.48686 -32.165248,-32.37803 0,-17.89117 14.39897,-32.37802 32.165248,-32.37802 a 31.869227,31.869227 0 0 1 9.90306,1.56802 l 0.0462,-38.825866 a 70.833869,70.833869 0 0 0 -54.580098,15.966986 74.834867,74.834867 0 0 0 -16.32777,20.1345 c -1.60965,2.77526 -7.68285,13.92718 -8.41829,32.02649 -0.46255,10.27308 2.62261,20.91621 4.0935,25.31499 v 0.0925 c 0.92509,2.59024 4.50981,11.42944 10.35173,18.88101 a 77.489864,77.489864 0 0 0 16.51739,15.58308 v -0.0925 l 0.0925,0.0925 c 18.4601,12.54417 38.927638,11.72084 38.927638,11.72084 3.54308,-0.14338 15.41195,0 28.89045,-6.38772 14.9494,-7.08153 23.4602,-17.63214 23.4602,-17.63214 a 73.294598,73.294598 0 0 0 12.78469,-21.24461 c 3.45058,-9.07048 4.60231,-19.94949 4.60231,-24.29739 V 90.694384 c 0.46254,0.277526 6.62362,4.352528 6.62362,4.352528 0,0 8.8762,5.689278 22.72475,9.394248 9.93542,2.6365 23.32142,3.19155 23.32142,3.19155 V 69.778179 c -4.69019,0.508797 -14.21395,-0.97134 -23.96436,-5.832661 z"
     id="path1651"
     style="fill:#000000;fill-opacity:1;stroke-width:0.462543" />
</svg>
